<svg width="212" height="31" viewBox="0 0 212 31" fill="none" xmlns="http://www.w3.org/2000/svg">
<path d="M14.2311 2.63686C14.9815 1.21456 17.0185 1.21457 17.7689 2.63686L20.4315 7.68339C20.7209 8.23188 21.2483 8.61509 21.8594 8.72082L27.4817 9.69362C29.0663 9.96779 29.6957 11.9051 28.5749 13.0583L24.5982 17.15C24.166 17.5947 23.9645 18.2148 24.0528 18.8286L24.865 24.4764C25.0939 26.0681 23.4459 27.2654 22.0028 26.5558L16.8825 24.0381C16.326 23.7645 15.674 23.7645 15.1175 24.0381L9.99715 26.5558C8.55406 27.2654 6.90612 26.0681 7.13502 24.4763L7.94723 18.8286C8.0355 18.2148 7.83403 17.5947 7.40181 17.15L3.42506 13.0583C2.30427 11.9051 2.93373 9.96779 4.5183 9.69362L10.1406 8.72082C10.7517 8.61509 11.2791 8.23187 11.5685 7.68338L14.2311 2.63686Z" fill="#E59E4C"/>
<path d="M59.2311 2.63686C59.9815 1.21456 62.0185 1.21457 62.7689 2.63686L65.4315 7.68339C65.7209 8.23188 66.2483 8.61509 66.8594 8.72082L72.4817 9.69362C74.0663 9.96779 74.6957 11.9051 73.5749 13.0583L69.5982 17.15C69.166 17.5947 68.9645 18.2148 69.0528 18.8286L69.865 24.4764C70.0939 26.0681 68.4459 27.2654 67.0028 26.5558L61.8825 24.0381C61.326 23.7645 60.674 23.7645 60.1175 24.0381L54.9972 26.5558C53.5541 27.2654 51.9061 26.0681 52.135 24.4763L52.9472 18.8286C53.0355 18.2148 52.834 17.5947 52.4018 17.15L48.4251 13.0583C47.3043 11.9051 47.9337 9.96779 49.5183 9.69362L55.1406 8.72082C55.7517 8.61509 56.2791 8.23187 56.5685 7.68338L59.2311 2.63686Z" fill="#E59E4C"/>
<path d="M104.231 2.63686C104.982 1.21456 107.018 1.21457 107.769 2.63686L110.431 7.68339C110.721 8.23188 111.248 8.61509 111.859 8.72082L117.482 9.69362C119.066 9.96779 119.696 11.9051 118.575 13.0583L114.598 17.15C114.166 17.5947 113.964 18.2148 114.053 18.8286L114.865 24.4764C115.094 26.0681 113.446 27.2654 112.003 26.5558L106.882 24.0381C106.326 23.7645 105.674 23.7645 105.118 24.0381L99.9972 26.5558C98.5541 27.2654 96.9061 26.0681 97.135 24.4763L97.9472 18.8286C98.0355 18.2148 97.834 17.5947 97.4018 17.15L93.4251 13.0583C92.3043 11.9051 92.9337 9.96779 94.5183 9.69362L100.141 8.72082C100.752 8.61509 101.279 8.23187 101.569 7.68338L104.231 2.63686Z" fill="#E59E4C"/>
<path d="M149.231 2.63686C149.982 1.21456 152.018 1.21457 152.769 2.63686L155.431 7.68339C155.721 8.23188 156.248 8.61509 156.859 8.72082L162.482 9.69362C164.066 9.96779 164.696 11.9051 163.575 13.0583L159.598 17.15C159.166 17.5947 158.964 18.2148 159.053 18.8286L159.865 24.4764C160.094 26.0681 158.446 27.2654 157.003 26.5558L151.882 24.0381C151.326 23.7645 150.674 23.7645 150.118 24.0381L144.997 26.5558C143.554 27.2654 141.906 26.0681 142.135 24.4763L142.947 18.8286C143.036 18.2148 142.834 17.5947 142.402 17.15L138.425 13.0583C137.304 11.9051 137.934 9.96779 139.518 9.69362L145.141 8.72082C145.752 8.61509 146.279 8.23187 146.569 7.68338L149.231 2.63686Z" fill="#E59E4C"/>
<path d="M194.231 2.63686C194.982 1.21456 197.018 1.21457 197.769 2.63686L200.431 7.68339C200.721 8.23188 201.248 8.61509 201.859 8.72082L207.482 9.69362C209.066 9.96779 209.696 11.9051 208.575 13.0583L204.598 17.15C204.166 17.5947 203.964 18.2148 204.053 18.8286L204.865 24.4764C205.094 26.0681 203.446 27.2654 202.003 26.5558L196.882 24.0381C196.326 23.7645 195.674 23.7645 195.118 24.0381L189.997 26.5558C188.554 27.2654 186.906 26.0681 187.135 24.4763L187.947 18.8286C188.036 18.2148 187.834 17.5947 187.402 17.15L183.425 13.0583C182.304 11.9051 182.934 9.96779 184.518 9.69362L190.141 8.72082C190.752 8.61509 191.279 8.23187 191.569 7.68338L194.231 2.63686Z" fill="#E59E4C"/>
</svg>
