<svg width="212" height="32" viewBox="0 0 212 32" fill="none" xmlns="http://www.w3.org/2000/svg">
<path d="M14.2311 3.35268C14.9815 1.93038 17.0185 1.93039 17.7689 3.35268L20.4315 8.39921C20.7209 8.9477 21.2483 9.33091 21.8594 9.43664L27.4817 10.4094C29.0663 10.6836 29.6957 12.6209 28.5749 13.7741L24.5982 17.8658C24.166 18.3105 23.9645 18.9306 24.0528 19.5444L24.865 25.1922C25.0939 26.7839 23.4459 27.9812 22.0028 27.2716L16.8825 24.7539C16.326 24.4803 15.674 24.4803 15.1175 24.7539L9.99715 27.2716C8.55406 27.9812 6.90612 26.7839 7.13502 25.1922L7.94723 19.5444C8.0355 18.9306 7.83403 18.3105 7.40181 17.8658L3.42506 13.7741C2.30427 12.6209 2.93373 10.6836 4.5183 10.4094L10.1406 9.43664C10.7517 9.33091 11.2791 8.94769 11.5685 8.3992L14.2311 3.35268Z" fill="#8AA060"/>
<path d="M59.2311 3.35268C59.9815 1.93038 62.0185 1.93039 62.7689 3.35268L65.4315 8.39921C65.7209 8.9477 66.2483 9.33091 66.8594 9.43664L72.4817 10.4094C74.0663 10.6836 74.6957 12.6209 73.5749 13.7741L69.5982 17.8658C69.166 18.3105 68.9645 18.9306 69.0528 19.5444L69.865 25.1922C70.0939 26.7839 68.4459 27.9812 67.0028 27.2716L61.8825 24.7539C61.326 24.4803 60.674 24.4803 60.1175 24.7539L54.9972 27.2716C53.5541 27.9812 51.9061 26.7839 52.135 25.1922L52.9472 19.5444C53.0355 18.9306 52.834 18.3105 52.4018 17.8658L48.4251 13.7741C47.3043 12.6209 47.9337 10.6836 49.5183 10.4094L55.1406 9.43664C55.7517 9.33091 56.2791 8.94769 56.5685 8.3992L59.2311 3.35268Z" fill="#8AA060"/>
<path d="M104.231 3.35268C104.982 1.93038 107.018 1.93039 107.769 3.35268L110.431 8.39921C110.721 8.9477 111.248 9.33091 111.859 9.43664L117.482 10.4094C119.066 10.6836 119.696 12.6209 118.575 13.7741L114.598 17.8658C114.166 18.3105 113.964 18.9306 114.053 19.5444L114.865 25.1922C115.094 26.7839 113.446 27.9812 112.003 27.2716L106.882 24.7539C106.326 24.4803 105.674 24.4803 105.118 24.7539L99.9972 27.2716C98.5541 27.9812 96.9061 26.7839 97.135 25.1922L97.9472 19.5444C98.0355 18.9306 97.834 18.3105 97.4018 17.8658L93.4251 13.7741C92.3043 12.6209 92.9337 10.6836 94.5183 10.4094L100.141 9.43664C100.752 9.33091 101.279 8.94769 101.569 8.3992L104.231 3.35268Z" fill="#8AA060"/>
<path d="M149.231 3.35268C149.982 1.93038 152.018 1.93039 152.769 3.35268L155.431 8.39921C155.721 8.9477 156.248 9.33091 156.859 9.43664L162.482 10.4094C164.066 10.6836 164.696 12.6209 163.575 13.7741L159.598 17.8658C159.166 18.3105 158.964 18.9306 159.053 19.5444L159.865 25.1922C160.094 26.7839 158.446 27.9812 157.003 27.2716L151.882 24.7539C151.326 24.4803 150.674 24.4803 150.118 24.7539L144.997 27.2716C143.554 27.9812 141.906 26.7839 142.135 25.1922L142.947 19.5444C143.036 18.9306 142.834 18.3105 142.402 17.8658L138.425 13.7741C137.304 12.6209 137.934 10.6836 139.518 10.4094L145.141 9.43664C145.752 9.33091 146.279 8.94769 146.569 8.3992L149.231 3.35268Z" fill="#8AA060"/>
<path d="M194.231 3.35268C194.982 1.93038 197.018 1.93039 197.769 3.35268L200.431 8.39921C200.721 8.9477 201.248 9.33091 201.859 9.43664L207.482 10.4094C209.066 10.6836 209.696 12.6209 208.575 13.7741L204.598 17.8658C204.166 18.3105 203.964 18.9306 204.053 19.5444L204.865 25.1922C205.094 26.7839 203.446 27.9812 202.003 27.2716L196.882 24.7539C196.326 24.4803 195.674 24.4803 195.118 24.7539L189.997 27.2716C188.554 27.9812 186.906 26.7839 187.135 25.1922L187.947 19.5444C188.036 18.9306 187.834 18.3105 187.402 17.8658L183.425 13.7741C182.304 12.6209 182.934 10.6836 184.518 10.4094L190.141 9.43664C190.752 9.33091 191.279 8.94769 191.569 8.3992L194.231 3.35268Z" fill="#8AA060"/>
</svg>
